<?xml version="1.0" encoding="UTF-8"?>
<svg xmlns="http://www.w3.org/2000/svg" xmlns:xlink="http://www.w3.org/1999/xlink" width="16" height="16" viewBox="0 0 16 16" version="1.1">
<g id="surface1">
<path style=" stroke:none;fill-rule:evenodd;fill:rgb(0%,0%,0%);fill-opacity:1;" d="M 8 0 C 12.414062 0 16 3.585938 16 8 C 16 12.414062 12.414062 16 8 16 C 3.585938 16 0 12.414062 0 8 C 0 3.585938 3.585938 0 8 0 Z M 8 0.667969 C 12.046875 0.667969 15.332031 3.953125 15.332031 8 C 15.332031 12.046875 12.046875 15.332031 8 15.332031 C 3.953125 15.332031 0.667969 12.046875 0.667969 8 C 0.667969 3.953125 3.953125 0.667969 8 0.667969 Z M 8 8 L 12 8 L 12 8.667969 L 7.332031 8.667969 L 7.332031 2.667969 L 8 2.667969 Z M 8 8 "/>
</g>
</svg>
