<?xml version="1.0" encoding="UTF-8"?>
<svg xmlns="http://www.w3.org/2000/svg" xmlns:xlink="http://www.w3.org/1999/xlink" width="10" height="16" viewBox="0 0 10 16" version="1.1">
<g id="surface1">
<path style=" stroke:none;fill-rule:nonzero;fill:rgb(0%,0%,0%);fill-opacity:1;" d="M 8 3 C 6.890625 3 6 3.890625 6 5 C 6 5.734375 6.40625 6.375 7 6.71875 L 7 7 C 7 8 6 9 5 9 C 4.171875 9 3.515625 9.171875 3 9.453125 L 3 4.71875 C 3.59375 4.375 4 3.734375 4 3 C 4 1.890625 3.109375 1 2 1 C 0.890625 1 0 1.890625 0 3 C 0 3.734375 0.40625 4.375 1 4.71875 L 1 11.265625 C 0.40625 11.609375 0 12.25 0 12.984375 C 0 14.09375 0.890625 14.984375 2 14.984375 C 3.109375 14.984375 4 14.09375 4 12.984375 C 4 12.453125 3.796875 11.984375 3.46875 11.625 C 3.765625 11.265625 4.234375 10.984375 5 10.984375 C 7 10.984375 9 8.984375 9 6.984375 L 9 6.703125 C 9.59375 6.359375 10 5.71875 10 4.984375 C 10 3.875 9.109375 2.984375 8 2.984375 Z M 2 2 C 2.546875 2 3 2.453125 3 3 C 3 3.546875 2.546875 4 2 4 C 1.453125 4 1 3.546875 1 3 C 1 2.453125 1.453125 2 2 2 Z M 2 14 C 1.453125 14 1 13.546875 1 13 C 1 12.453125 1.453125 12 2 12 C 2.546875 12 3 12.453125 3 13 C 3 13.546875 2.546875 14 2 14 Z M 8 6 C 7.453125 6 7 5.546875 7 5 C 7 4.453125 7.453125 4 8 4 C 8.546875 4 9 4.453125 9 5 C 9 5.546875 8.546875 6 8 6 Z M 8 6 "/>
</g>
</svg>
