<?xml version="1.0" encoding="UTF-8"?>
<svg xmlns="http://www.w3.org/2000/svg" xmlns:xlink="http://www.w3.org/1999/xlink" width="16" height="16" viewBox="0 0 16 16" version="1.1">
<g id="surface1">
<path style=" stroke:none;fill-rule:nonzero;fill:rgb(0%,0%,0%);fill-opacity:1;" d="M 7.617188 0.0078125 C 5.792969 0.105469 4.109375 0.785156 2.738281 1.976562 C 2.554688 2.140625 2.140625 2.554688 1.976562 2.738281 C 0.851562 4.03125 0.195312 5.570312 0.0273438 7.304688 C 0 7.621094 0 8.378906 0.0273438 8.695312 C 0.195312 10.429688 0.851562 11.96875 1.976562 13.261719 C 2.140625 13.445312 2.554688 13.859375 2.738281 14.023438 C 4.03125 15.148438 5.570312 15.804688 7.304688 15.972656 C 7.621094 16 8.378906 16 8.695312 15.972656 C 10.429688 15.804688 11.96875 15.148438 13.261719 14.023438 C 13.445312 13.859375 13.859375 13.445312 14.023438 13.261719 C 15.148438 11.96875 15.804688 10.429688 15.972656 8.695312 C 16 8.378906 16 7.621094 15.972656 7.304688 C 15.804688 5.570312 15.148438 4.03125 14.023438 2.738281 C 13.859375 2.554688 13.445312 2.140625 13.261719 1.976562 C 11.972656 0.855469 10.414062 0.191406 8.707031 0.03125 C 8.503906 0.0117188 7.8125 -0.00390625 7.617188 0.0078125 Z M 8.394531 0.71875 C 9.335938 0.757812 10.371094 1.027344 11.261719 1.472656 C 13.320312 2.503906 14.78125 4.460938 15.179688 6.710938 C 15.304688 7.402344 15.324219 8.15625 15.242188 8.855469 C 14.976562 11.132812 13.636719 13.164062 11.632812 14.320312 L 11.523438 14.386719 L 11.445312 14.132812 C 11.3125 13.71875 10.886719 12.28125 10.789062 11.917969 C 10.769531 11.84375 10.675781 11.515625 10.582031 11.195312 C 10.488281 10.871094 10.292969 10.191406 10.148438 9.6875 C 10.007812 9.183594 9.78125 8.390625 9.652344 7.933594 L 9.410156 7.097656 L 9.492188 7.011719 C 9.710938 6.773438 9.960938 6.417969 10.039062 6.226562 C 10.066406 6.164062 10.082031 6.152344 10.125 6.175781 C 10.136719 6.179688 10.195312 6.203125 10.257812 6.21875 C 10.695312 6.347656 11.214844 6.351562 11.671875 6.230469 C 12.085938 6.121094 12.429688 5.890625 12.632812 5.585938 L 12.71875 5.460938 L 12.6875 5.4375 C 12.382812 5.203125 11.980469 5.027344 11.570312 4.953125 C 11.089844 4.871094 10.574219 4.941406 10.28125 5.132812 C 10.242188 5.15625 10.207031 5.175781 10.203125 5.171875 C 10.203125 5.171875 10.179688 5.101562 10.15625 5.019531 C 10.085938 4.789062 10.019531 4.671875 9.878906 4.527344 C 9.8125 4.460938 9.804688 4.445312 9.816406 4.425781 C 9.824219 4.414062 9.949219 4.261719 10.097656 4.085938 L 10.359375 3.765625 L 10.464844 3.773438 C 10.59375 3.777344 10.6875 3.757812 10.796875 3.707031 C 11.050781 3.578125 11.195312 3.277344 11.132812 3.007812 C 11.101562 2.871094 11.054688 2.789062 10.957031 2.691406 C 10.757812 2.492188 10.488281 2.445312 10.230469 2.566406 C 10.070312 2.644531 9.949219 2.785156 9.898438 2.953125 C 9.875 3.027344 9.871094 3.058594 9.878906 3.164062 C 9.882812 3.238281 9.894531 3.320312 9.90625 3.351562 L 9.929688 3.410156 L 9.636719 3.769531 C 9.476562 3.964844 9.347656 4.125 9.34375 4.125 C 9.339844 4.125 9.304688 4.101562 9.265625 4.078125 C 9.171875 4.015625 9.011719 3.933594 8.921875 3.90625 C 8.882812 3.890625 8.851562 3.878906 8.851562 3.875 C 8.851562 3.867188 8.890625 3.695312 8.941406 3.484375 C 8.992188 3.277344 9.042969 3.066406 9.054688 3.019531 L 9.078125 2.929688 L 9.160156 2.902344 C 9.605469 2.746094 9.738281 2.195312 9.414062 1.855469 C 9.289062 1.726562 9.136719 1.664062 8.957031 1.664062 C 8.636719 1.664062 8.375 1.886719 8.324219 2.207031 C 8.308594 2.304688 8.316406 2.386719 8.351562 2.496094 C 8.375 2.574219 8.453125 2.703125 8.492188 2.734375 C 8.503906 2.746094 8.511719 2.761719 8.511719 2.773438 C 8.511719 2.785156 8.460938 3.007812 8.402344 3.269531 C 8.292969 3.734375 8.289062 3.742188 8.261719 3.742188 C 8.246094 3.738281 8.160156 3.734375 8.070312 3.734375 C 7.898438 3.734375 7.820312 3.746094 7.578125 3.828125 L 7.484375 3.859375 L 7.476562 3.835938 C 7.425781 3.703125 7.40625 3.65625 7.363281 3.578125 C 7.117188 3.121094 6.710938 2.707031 6.273438 2.472656 C 6.011719 2.332031 5.753906 2.257812 5.492188 2.257812 C 5.402344 2.257812 5.289062 2.265625 5.234375 2.273438 C 5.136719 2.289062 5.136719 2.289062 5.136719 2.328125 C 5.136719 2.390625 5.171875 2.597656 5.203125 2.699219 C 5.304688 3.078125 5.507812 3.464844 5.773438 3.804688 C 5.890625 3.953125 6.117188 4.171875 6.257812 4.273438 C 6.390625 4.367188 6.578125 4.460938 6.679688 4.488281 L 6.734375 4.503906 L 6.6875 4.597656 C 6.5625 4.851562 6.453125 5.183594 6.382812 5.546875 C 6.359375 5.664062 6.304688 5.976562 6.269531 6.242188 C 6.171875 6.917969 6.101562 7.273438 6.011719 7.550781 C 5.945312 7.75 5.773438 8.066406 5.570312 8.347656 C 5.332031 8.683594 5.148438 8.898438 4.507812 9.582031 C 3.851562 10.28125 3.648438 10.539062 3.535156 10.828125 C 3.335938 11.328125 3.554688 11.96875 4.148438 12.589844 C 4.460938 12.921875 4.910156 13.222656 5.25 13.328125 C 5.773438 13.5 6.453125 13.480469 7.007812 13.285156 C 7.433594 13.136719 7.753906 12.867188 7.898438 12.546875 C 8.035156 12.242188 8.09375 11.835938 8.132812 10.875 C 8.152344 10.328125 8.167969 10.089844 8.195312 9.824219 C 8.242188 9.351562 8.335938 8.929688 8.460938 8.605469 L 8.507812 8.480469 L 8.523438 8.53125 C 8.609375 8.851562 8.929688 10.261719 9.273438 11.851562 C 9.34375 12.164062 9.445312 12.640625 9.507812 12.914062 C 9.566406 13.183594 9.617188 13.425781 9.617188 13.449219 C 9.621094 13.488281 9.691406 13.796875 9.914062 14.785156 C 9.941406 14.910156 9.960938 15.019531 9.953125 15.023438 C 9.941406 15.035156 9.636719 15.109375 9.449219 15.148438 C 8.726562 15.296875 7.882812 15.332031 7.136719 15.242188 C 5.148438 15.007812 3.351562 13.964844 2.148438 12.355469 C 1.320312 11.242188 0.832031 9.933594 0.726562 8.53125 C 0.707031 8.289062 0.707031 7.710938 0.726562 7.46875 C 0.886719 5.339844 1.941406 3.421875 3.644531 2.148438 C 4.824219 1.269531 6.242188 0.765625 7.710938 0.710938 C 7.949219 0.703125 8.035156 0.703125 8.394531 0.71875 Z M 8.394531 0.71875 "/>
</g>
</svg>
