<?xml version="1.0" encoding="UTF-8"?>
<svg xmlns="http://www.w3.org/2000/svg" xmlns:xlink="http://www.w3.org/1999/xlink" width="40pt" height="40pt" viewBox="0 0 40 40" version="1.1">
<g id="surface1">
<path style=" stroke:none;fill-rule:nonzero;fill:rgb(0%,0%,0%);fill-opacity:1;" d="M 19.046875 0.0195312 C 14.480469 0.261719 10.273438 1.960938 6.84375 4.945312 C 6.382812 5.351562 5.351562 6.382812 4.945312 6.84375 C 2.132812 10.074219 0.492188 13.921875 0.0703125 18.265625 C -0.00390625 19.054688 -0.00390625 20.945312 0.0703125 21.734375 C 0.492188 26.078125 2.132812 29.925781 4.945312 33.15625 C 5.351562 33.617188 6.382812 34.648438 6.84375 35.054688 C 10.078125 37.867188 13.921875 39.507812 18.265625 39.929688 C 19.054688 40.003906 20.945312 40.003906 21.734375 39.929688 C 26.078125 39.507812 29.921875 37.867188 33.15625 35.054688 C 33.617188 34.648438 34.648438 33.617188 35.054688 33.15625 C 37.867188 29.925781 39.507812 26.078125 39.929688 21.734375 C 40.003906 20.945312 40.003906 19.054688 39.929688 18.265625 C 39.507812 13.921875 37.867188 10.074219 35.054688 6.84375 C 34.648438 6.382812 33.617188 5.351562 33.15625 4.945312 C 29.933594 2.140625 26.039062 0.476562 21.765625 0.078125 C 21.257812 0.03125 19.527344 -0.0078125 19.046875 0.0195312 Z M 20.984375 1.796875 C 23.335938 1.890625 25.925781 2.570312 28.152344 3.683594 C 33.300781 6.261719 36.957031 11.148438 37.949219 16.78125 C 38.257812 18.507812 38.308594 20.390625 38.105469 22.140625 C 37.445312 27.835938 34.09375 32.914062 29.085938 35.804688 L 28.8125 35.964844 L 28.613281 35.335938 C 28.277344 34.292969 27.21875 30.703125 26.976562 29.792969 C 26.925781 29.605469 26.691406 28.789062 26.457031 27.984375 C 26.222656 27.175781 25.734375 25.480469 25.375 24.21875 C 25.019531 22.957031 24.457031 20.980469 24.128906 19.835938 L 23.527344 17.746094 L 23.730469 17.527344 C 24.28125 16.933594 24.902344 16.042969 25.101562 15.570312 C 25.167969 15.40625 25.207031 15.382812 25.308594 15.4375 C 25.339844 15.453125 25.492188 15.503906 25.644531 15.546875 C 26.742188 15.867188 28.039062 15.878906 29.179688 15.574219 C 30.21875 15.300781 31.078125 14.722656 31.585938 13.960938 L 31.792969 13.648438 L 31.714844 13.589844 C 30.960938 13.003906 29.949219 12.566406 28.929688 12.386719 C 27.726562 12.179688 26.4375 12.355469 25.699219 12.828125 C 25.601562 12.890625 25.519531 12.9375 25.511719 12.929688 C 25.507812 12.925781 25.453125 12.753906 25.390625 12.550781 C 25.214844 11.976562 25.050781 11.679688 24.695312 11.320312 C 24.527344 11.148438 24.507812 11.109375 24.539062 11.066406 C 24.558594 11.039062 24.875 10.65625 25.242188 10.214844 L 25.898438 9.417969 L 26.164062 9.429688 C 26.488281 9.445312 26.722656 9.398438 26.992188 9.265625 C 27.628906 8.945312 27.992188 8.195312 27.832031 7.523438 C 27.75 7.179688 27.636719 6.976562 27.394531 6.730469 C 26.890625 6.226562 26.21875 6.113281 25.578125 6.417969 C 25.179688 6.609375 24.871094 6.960938 24.746094 7.382812 C 24.691406 7.566406 24.679688 7.648438 24.695312 7.914062 C 24.707031 8.09375 24.734375 8.300781 24.765625 8.382812 L 24.820312 8.527344 L 24.09375 9.421875 C 23.695312 9.914062 23.367188 10.3125 23.355469 10.3125 C 23.347656 10.3125 23.257812 10.257812 23.164062 10.191406 C 22.929688 10.035156 22.53125 9.835938 22.304688 9.761719 C 22.207031 9.730469 22.125 9.695312 22.125 9.683594 C 22.125 9.671875 22.226562 9.234375 22.355469 8.710938 C 22.484375 8.191406 22.609375 7.664062 22.640625 7.546875 L 22.695312 7.324219 L 22.898438 7.253906 C 24.011719 6.867188 24.34375 5.488281 23.53125 4.640625 C 23.21875 4.316406 22.839844 4.15625 22.390625 4.15625 C 21.589844 4.15625 20.941406 4.71875 20.8125 5.519531 C 20.773438 5.765625 20.789062 5.964844 20.878906 6.242188 C 20.941406 6.433594 21.132812 6.757812 21.226562 6.839844 C 21.257812 6.863281 21.28125 6.90625 21.28125 6.933594 C 21.28125 6.960938 21.15625 7.519531 21.003906 8.171875 C 20.730469 9.335938 20.726562 9.359375 20.652344 9.351562 C 20.613281 9.347656 20.398438 9.339844 20.171875 9.335938 C 19.742188 9.332031 19.550781 9.367188 18.945312 9.574219 L 18.714844 9.652344 L 18.691406 9.585938 C 18.5625 9.257812 18.511719 9.144531 18.40625 8.945312 C 17.789062 7.804688 16.773438 6.765625 15.679688 6.179688 C 15.03125 5.828125 14.382812 5.648438 13.734375 5.644531 C 13.507812 5.644531 13.222656 5.660156 13.085938 5.683594 C 12.84375 5.726562 12.84375 5.726562 12.84375 5.824219 C 12.84375 5.976562 12.933594 6.492188 13.003906 6.75 C 13.261719 7.691406 13.769531 8.664062 14.4375 9.515625 C 14.730469 9.886719 15.292969 10.429688 15.648438 10.683594 C 15.976562 10.914062 16.445312 11.15625 16.695312 11.21875 L 16.839844 11.257812 L 16.722656 11.496094 C 16.40625 12.125 16.132812 12.960938 15.953125 13.867188 C 15.894531 14.160156 15.765625 14.941406 15.671875 15.601562 C 15.429688 17.292969 15.253906 18.179688 15.03125 18.875 C 14.867188 19.375 14.429688 20.164062 13.929688 20.867188 C 13.332031 21.707031 12.867188 22.242188 11.265625 23.953125 C 9.628906 25.699219 9.117188 26.351562 8.835938 27.066406 C 8.335938 28.320312 8.890625 29.917969 10.371094 31.476562 C 11.15625 32.300781 12.273438 33.054688 13.121094 33.324219 C 14.433594 33.746094 16.132812 33.703125 17.523438 33.214844 C 18.582031 32.839844 19.382812 32.171875 19.75 31.363281 C 20.089844 30.601562 20.230469 29.59375 20.328125 27.1875 C 20.382812 25.816406 20.417969 25.226562 20.488281 24.5625 C 20.605469 23.378906 20.835938 22.320312 21.148438 21.515625 L 21.273438 21.203125 L 21.308594 21.328125 C 21.523438 22.128906 22.324219 25.65625 23.1875 29.625 C 23.355469 30.40625 23.617188 31.601562 23.765625 32.28125 C 23.914062 32.960938 24.039062 33.566406 24.046875 33.625 C 24.054688 33.71875 24.226562 34.492188 24.785156 36.964844 C 24.851562 37.277344 24.898438 37.550781 24.882812 37.5625 C 24.855469 37.585938 24.09375 37.777344 23.625 37.871094 C 21.8125 38.242188 19.703125 38.328125 17.84375 38.105469 C 12.867188 37.515625 8.375 34.914062 5.375 30.890625 C 3.296875 28.105469 2.078125 24.835938 1.8125 21.328125 C 1.765625 20.726562 1.765625 19.273438 1.8125 18.671875 C 2.21875 13.347656 4.851562 8.550781 9.109375 5.375 C 12.0625 3.171875 15.609375 1.917969 19.28125 1.78125 C 19.875 1.757812 20.085938 1.761719 20.984375 1.796875 Z M 20.984375 1.796875 "/>
</g>
</svg>
