<?xml version="1.0" encoding="UTF-8"?>
<svg xmlns="http://www.w3.org/2000/svg" xmlns:xlink="http://www.w3.org/1999/xlink" width="16" height="16" viewBox="0 0 16 16" version="1.1">
<g id="surface1">
<path style=" stroke:none;fill-rule:nonzero;fill:rgb(0%,0%,0%);fill-opacity:1;" d="M 2 0 L 1.800781 0.382812 L 3.898438 1.539062 C 3.898438 2.5 3.5 3.269531 2.601562 3.75 L 0.5 2.597656 L 0.398438 2.789062 C 0.898438 4.230469 1.898438 5.191406 3.898438 5.191406 C 4.398438 5.191406 5.898438 6.632812 6.699219 7.402344 L 8.300781 5.867188 C 7.5 5.097656 5.699219 3.367188 5.699219 2.882812 C 5.699219 1.152344 5.199219 0 2 0 Z M 14.5 0.480469 L 12.5 1.828125 L 12.300781 2.597656 L 6.5 8.171875 L 5.699219 7.691406 L 5.300781 8.078125 C 5.300781 9.230469 3.898438 9.808594 3.300781 9.808594 L 0 12.980469 C 0 13.941406 1.101562 15 2.101562 15 L 5.398438 11.828125 C 5.398438 11.25 6 9.902344 7.199219 9.902344 L 7.601562 9.519531 L 7.101562 8.75 L 12.898438 3.171875 L 13.699219 2.980469 L 15.101562 1.058594 Z M 9.5 7.019531 L 7.898438 8.558594 C 9.101562 9.710938 10.699219 11.25 10.699219 11.730469 C 10.699219 13.460938 11.199219 14.617188 14.398438 14.617188 L 14.601562 14.230469 L 12.5 13.078125 C 12.5 12.117188 12.898438 11.347656 13.800781 10.867188 L 15.898438 12.019531 L 16 11.828125 C 15.5 10.382812 14.5 9.421875 12.5 9.421875 C 12 9.421875 10.699219 8.171875 9.5 7.019531 Z M 9.5 7.019531 "/>
</g>
</svg>
